<?xml version="1.0" encoding="UTF-8"?>
<svg width="40px" height="40px" viewBox="0 0 40 40" version="1.1" xmlns="http://www.w3.org/2000/svg" xmlns:xlink="http://www.w3.org/1999/xlink">
    <!-- Generator: Sketch 53.2 (72643) - https://sketchapp.com -->
    <title>img_client</title>
    <desc>Created with Sketch.</desc>
    <g id="首页" stroke="none" stroke-width="1" fill="none" fill-rule="evenodd">
        <g transform="translate(-748.000000, -838.000000)" id="常用功能">
            <g transform="translate(88.000000, 668.000000)">
                <g transform="translate(644.000000, 150.000000)" id="img_client">
                    <g transform="translate(16.000000, 20.000000)">
                        <rect id="矩形" fill="#FE9046" x="0" y="0" width="40" height="40" rx="6"></rect>
                        <rect id="Rectangle-3" fill-rule="nonzero" x="8" y="8" width="24" height="24"></rect>
                        <path d="M20.375,29 L21.4210807,26.2104514 C20.9047083,25.8436573 20.4057683,25.5 20,25.5 C19.5942317,25.5 19.0952917,25.8436573 18.5789193,26.2104514 L19.625,29 L20.375,29 Z M21.375,29 L29,29 C29,28.3333333 29,27.8333333 29,27.5 C29,27 28.5,26.5 27,26 C26.3655495,25.7885165 25.2838464,25.4875825 24.2467407,25.1728672 C24.2159524,25.9876481 23.9670388,26.7664806 23.5,27 C23.1270527,27.1864737 22.6816232,27.0252231 22.218871,26.7496773 L21.375,29 Z M18.625,29 L17.781129,26.7496773 C17.3183768,27.0252231 16.8729473,27.1864737 16.5,27 C16.0329612,26.7664806 15.7840476,25.9876481 15.7532593,25.1728672 C14.7161536,25.4875825 13.6344505,25.7885165 13,26 C11.5,26.5 11,27 11,27.5 C11,27.8333333 11,28.3333333 11,29 L18.625,29 Z M22.5065619,23.0963905 C22.8642247,22.9230332 23.2040142,22.8520071 23.5,23 C23.8236182,23.1618091 24.0425077,23.5854401 24.1566684,24.1014324 C24.929734,24.3217347 25.9180416,24.5672166 27,25 C28.6666667,25.6666667 29.6666667,26.3333333 30,27 C30,28 30,28.6666667 30,29 C30,29.5 29.5,30 29,30 C28.5,30 11.5,30 11,30 C10.5,30 10,29.5 10,29 C10,28.6666667 10,28 10,27 C10.3333333,26.3333333 11.3333333,25.6666667 13,25 C14.0819584,24.5672166 15.070266,24.3217347 15.8433316,24.1014324 C15.9574923,23.5854401 16.1763818,23.1618091 16.5,23 C16.7959858,22.8520071 17.1357753,22.9230332 17.4934381,23.0963905 C17.4977944,23.0653143 17.5,23.0332086 17.5,23 C17.5,22 15,20.5 15,19 C15,17.5 15,17 15,15 C15,13 17,10 20,10 C23,10 25,13 25,15 C25,17 25,17.5 25,19 C25,20.5 22.5,22 22.5,23 C22.5,23.0332086 22.5022056,23.0653143 22.5065619,23.0963905 Z M21.5,23.7397113 C21.5,23.443792 21.5,23.3101106 21.5,23 C21.5,21.5 24,20 24,19 C24,18 24,17 24,15 C24,13 22,11 20,11 C18,11 16,13 16,15 C16,17 16,18 16,19 C16,20 18.5,21.5 18.5,23 C18.5,23.3094235 18.5,23.4435293 18.5,23.7397113 C19.0396374,24.1245819 19.566746,24.5 20,24.5 C20.433254,24.5 20.9603626,24.1245819 21.5,23.7397113 Z M17,24 C16.645898,24.236068 16.6177363,25.7451575 17,26 C17.2548425,26.169895 17.9215092,25.8375584 19,25.0029904 C17.9027346,24.1769515 17.236068,23.8426213 17,24 Z M23,24 C22.763932,23.8426213 22.0972654,24.1769041 21,25.0028482 C22.0784908,25.837511 22.7451575,26.169895 23,26 C23.3822637,25.7451575 23.354102,24.236068 23,24 Z" id="合并形状" fill="#FFFFFF"></path>
                    </g>
                </g>
            </g>
        </g>
    </g>
</svg>